#!OML:ASF H:\Terrain\Patient Classification 1\Animal1\Tuesday\Animal1.ASF
:FULLY-SPECIFIED
:DEGREES
2686
root 5.72147 16.3701 -14.4056 -349.315 -13.0607 -1.47739
lowerback -7.43266 -2.42445 -0.522016
upperback -6.35213 -3.21985 1.47111
thorax -2.29349 -1.58268 1.63732
lowerneck 2.19434 -6.18923 -9.02136
upperneck 5.36298 -9.14681 14.2989
head 2.28735 -4.54756 5.61743
rclavicle 7.51779e-014 9.54166e-015
rhumerus -35.8589 11.0206 -88.5686
rradius 25.1352
rwrist -7.53619
rhand -19.39 25.9861
rfingers 7.12502
rthumb 6.92869 -3.88054
lclavicle 7.51779e-014 9.54166e-015
lhumerus -37.5647 -0.137222 84.2604
lradius 29.4276
lwrist -26.7454
lhand 3.09721 43.1893
lfingers 7.12502
lthumb 28.5534 71.029
rfemur -18.4966 28.0855 24.6843
rtibia 18.7836
rfoot -2.69074 -29.2071
rtoes 4.34305
lfemur -15.506 -2.58783 -11.7209
ltibia 25.4764
lfoot -18.3832 28.6176
ltoes 10.5977
2687
root 5.69851 16.3537 -14.418 -349.195 -13.1548 -2.01678
lowerback -7.36851 -2.35046 -0.0265538
upperback -6.30596 -3.14502 1.58142
thorax -2.30274 -1.56008 1.48037
lowerneck 2.03099 -6.26521 -9.14532
upperneck 5.3985 -9.26191 14.5369
head 2.35536 -4.59657 5.70008
rclavicle 2.22266e-014 -5.96354e-016
rhumerus -35.8463 10.6241 -88.254
rradius 25.0388
rwrist -7.75009
rhand -19.2397 26.7846
rfingers 7.12502
rthumb 7.07377 -3.07719
lclavicle 2.22266e-014 -5.96354e-016
lhumerus -37.4861 -0.0438405 84.1122
lradius 29.286
lwrist -26.9223
lhand 2.69016 44.1085
lfingers 7.12502
lthumb 28.1644 72.0129
rfemur -18.5022 28.323 25.2982
rtibia 18.6919
rfoot -2.79971 -29.1261
rtoes 5.64927
lfemur -16.2855 -2.19516 -11.0067
ltibia 26.8888
lfoot -17.9 28.338
ltoes 10.4697
2688
root 5.67604 16.3487 -14.4263 -349.225 -13.3934 -1.88777
lowerback -7.323 -2.30257 -0.176306
upperback -6.26781 -3.07499 1.49017
thorax -2.28693 -1.52174 1.47452
lowerneck 1.72873 -6.34214 -8.86552
upperneck 5.57461 -9.35592 14.3716
head 2.44862 -4.62468 5.58524
rclavicle 2.74758e-014 9.14409e-015
rhumerus -35.8057 10.026 -87.8795
rradius 24.8514
rwrist -7.42917
rhand -19.0763 27.6935
rfingers 7.12502
rthumb 7.23154 -2.16289
lclavicle 2.74758e-014 9.14409e-015
lhumerus -37.4817 0.0105245 83.9692
lradius 29.1656
lwrist -27.0364
lhand 2.41327 44.214
lfingers 7.12502
lthumb 27.8998 72.1617
rfemur -18.4736 27.9899 25.2904
rtibia 18.6449
rfoot -3.17056 -28.5139
rtoes 6.44347
lfemur -16.9577 -1.72478 -11.0777
ltibia 28.261
lfoot -17.8941 27.7026
ltoes 12.2687
2689
root 5.65236 16.3486 -14.4261 -349.464 -13.5695 -1.5707
lowerback -7.29371 -2.30716 -0.528513
upperback -6.15621 -3.06493 1.36691
thorax -2.17562 -1.50778 1.54238
lowerneck 1.68094 -6.33572 -8.42419
upperneck 5.55365 -9.31705 14.0324
head 2.41018 -4.60076 5.40811
rclavicle -4.02477e-014 -7.35503e-015
rhumerus -35.7948 9.66611 -87.6038
rradius 24.7539
rwrist -7.32181
rhand -19.1597 28.1708
rfingers 7.12502
rthumb 7.151 -1.68838
lclavicle -4.02477e-014 -7.35503e-015
lhumerus -37.6423 0.118028 83.8397
lradius 29.2762
lwrist -27.1037
lhand 2.4221 43.7143
lfingers 7.12502
lthumb 27.9082 71.6606
rfemur -18.1623 27.3995 25.2409
rtibia 18.5744
rfoot -3.06451 -27.8487
rtoes 5.46186
lfemur -17.4351 -1.30499 -11.3907
ltibia 29.6764
lfoot -17.9956 27.3054
ltoes 13.3246
2690
root 5.6268 16.3399 -14.4336 -349.49 -13.688 -1.73252
lowerback -7.25137 -2.33958 -0.536353
upperback -6.129 -3.10686 1.48511
thorax -2.16259 -1.5265 1.66714
lowerneck 1.92463 -6.30322 -8.42908
upperneck 5.32656 -9.25389 13.9269
head 2.29125 -4.58538 5.39069
rclavicle -4.17883e-014 -1.49089e-015
rhumerus -35.8867 9.40594 -87.211
rradius 24.7467
rwrist -7.31703
rhand -18.8831 28.4507
rfingers 7.12502
rthumb 7.41798 -1.39928
lclavicle -4.17883e-014 -1.49089e-015
lhumerus -37.8288 0.426298 83.7476
lradius 29.3798
lwrist -26.9995
lhand 2.68073 43.4774
lfingers 7.12502
lthumb 28.1554 71.3832
rfemur -18.0047 27.0295 25.6252
rtibia 18.4288
rfoot -2.45911 -27.3316
rtoes 4.31171
lfemur -18.1355 -0.980868 -11.1099
ltibia 31.1641
lfoot -17.9962 26.8916
ltoes 15.8629
2691
root 5.6035 16.323 -14.4521 -349.237 -13.7114 -2.39601
lowerback -7.19653 -2.39198 -0.0437494
upperback -6.17662 -3.19808 1.7827
thorax -2.24923 -1.58281 1.69796
lowerneck 2.07657 -6.30059 -8.46022
upperneck 5.07625 -9.21761 13.7144
head 2.18071 -4.58166 5.34016
rclavicle 3.2787e-014 -1.58034e-014
rhumerus -35.9116 9.03296 -86.7173
rradius 24.5921
rwrist -6.9686
rhand -18.8697 28.47
rfingers 7.12502
rthumb 7.43089 -1.37954
lclavicle 3.2787e-014 -1.58034e-014
lhumerus -37.9819 0.842622 83.6579
lradius 29.4058
lwrist -26.8597
lhand 2.81549 43.5099
lfingers 7.12502
lthumb 28.2842 71.3945
rfemur -18.0639 26.964 26.3889
rtibia 18.1422
rfoot -2.02487 -27.0124
rtoes 4.08945
lfemur -19.2076 -0.686944 -10.2431
ltibia 32.7943
lfoot -17.5896 26.3622
ltoes 18.5649
2692
root 5.57989 16.3074 -14.4763 -349.043 -13.6283 -3.05309
lowerback -7.00228 -2.40962 0.508435
upperback -6.23355 -3.24321 1.98147
thorax -2.43374 -1.61984 1.60373
lowerneck 2.22685 -6.27244 -8.32459
upperneck 4.79436 -9.14778 13.5762
head 2.05316 -4.55762 5.28739
rclavicle -5.32991e-014 -4.17448e-015
rhumerus -35.9766 8.47974 -86.2776
rradius 24.419
rwrist -6.85049
rhand -19.1697 28.1281
rfingers 7.12502
rthumb 7.14137 -1.73142
lclavicle -5.32991e-014 -4.17448e-015
lhumerus -38.1019 0.99701 83.5201
lradius 29.3735
lwrist -26.9303
lhand 2.62104 43.1995
lfingers 7.12502
lthumb 28.0984 71.1147
rfemur -18.0271 27.1042 27.1443
rtibia 17.7718
rfoot -1.52993 -26.9339
rtoes 3.43379
lfemur -20.337 -0.497521 -9.36731
ltibia 34.5138
lfoot -16.873 26.0639
ltoes 19.1291
2693
root 5.55685 16.2985 -14.4998 -348.975 -13.5901 -3.26509
lowerback -6.79118 -2.44047 0.596821
upperback -6.32014 -3.28328 2.0645
thorax -2.64032 -1.64089 1.65126
lowerneck 2.50728 -6.17225 -8.41261
upperneck 4.57357 -9.01317 13.7106
head 1.93643 -4.50569 5.36175
rclavicle -2.82026e-015 -4.37326e-015
rhumerus -36.0861 7.97584 -85.8004
rradius 24.3357
rwrist -7.13686
rhand -18.8375 27.6467
rfingers 7.12502
rthumb 7.46205 -2.20168
lclavicle -2.82026e-015 -4.37326e-015
lhumerus -38.1139 1.16596 83.386
lradius 29.0823
lwrist -27.081
lhand 2.71688 43.3647
lfingers 7.12502
lthumb 28.19 71.2648
rfemur -17.9993 27.1533 27.4469
rtibia 17.4782
rfoot -1.09418 -26.8233
rtoes 2.92201
lfemur -21.3959 -0.461848 -8.9908
ltibia 36.1578
lfoot -16.2488 25.9865
ltoes 19.3009
2694
root 5.53824 16.2936 -14.5164 -348.861 -13.5934 -3.24974
lowerback -6.82814 -2.5371 0.49768
upperback -6.39226 -3.40702 2.14577
thorax -2.6819 -1.69794 1.78531
lowerneck 2.71695 -6.07488 -8.66937
upperneck 4.54013 -8.90088 13.8385
head 1.89559 -4.46136 5.45571
rclavicle -2.64259e-014 -9.0447e-015
rhumerus -36.1329 7.80605 -85.3845
rradius 24.2151
rwrist -7.34613
rhand -18.4871 27.4227
rfingers 7.12502
rthumb 7.80023 -2.41345
lclavicle -2.64259e-014 -9.0447e-015
lhumerus -38.2083 1.79179 83.1715
lradius 28.854
lwrist -27.3486
lhand 3.12349 44.4487
lfingers 7.12502
lthumb 28.5785 72.2841
rfemur -18.1995 27.1749 27.4345
rtibia 17.4073
rfoot -0.968948 -26.8049
rtoes 3.45049
lfemur -22.4313 -0.471588 -8.89732
ltibia 37.6138
lfoot -15.6103 25.831
ltoes 19.5998
2695
root 5.51967 16.2842 -14.5268 -348.767 -13.5707 -3.30252
lowerback -6.88663 -2.60999 0.513694
upperback -6.45305 -3.5047 2.20079
thorax -2.70825 -1.7466 1.82791
lowerneck 2.79435 -6.04608 -8.81297
upperneck 4.64192 -8.88221 13.8752
head 1.91801 -4.45522 5.49295
rclavicle -6.37353e-015 -1.65985e-014
rhumerus -36.3034 7.56985 -85.0347
rradius 23.9519
rwrist -7.28608
rhand -18.5272 28.014
rfingers 7.12502
rthumb 7.76156 -1.82356
lclavicle -6.37353e-015 -1.65985e-014
lhumerus -38.4848 2.31076 82.9496
lradius 28.8561
lwrist -27.5833
lhand 3.45545 44.6249
lfingers 7.12502
lthumb 28.8957 72.4065
rfemur -18.3637 27.1377 27.5461
rtibia 17.4837
rfoot -1.38217 -26.874
rtoes 5.25308
lfemur -23.2761 -0.555437 -8.7185
ltibia 38.8743
lfoot -14.7939 25.5779
ltoes 21.691
2696
root 5.50076 16.2744 -14.5339 -348.77 -13.6085 -3.30176
lowerback -6.82807 -2.61418 0.473986
upperback -6.50851 -3.50736 2.19257
thorax -2.79676 -1.74636 1.84654
lowerneck 2.84434 -6.05338 -8.83055
upperneck 4.70156 -8.90526 13.9233
head 1.93253 -4.46748 5.51103
rclavicle -1.01504e-014 1.65985e-014
rhumerus -36.6368 7.25768 -84.7516
rradius 23.9078
rwrist -7.23562
rhand -18.4991 28.3429
rfingers 7.12502
rthumb 7.78861 -1.49363
lclavicle -1.01504e-014 1.65985e-014
lhumerus -38.599 2.45 82.8537
lradius 28.6818
lwrist -27.5806
lhand 3.793 43.6106
lfingers 7.12502
lthumb 29.2181 71.3366
rfemur -18.3575 26.9099 27.6891
rtibia 17.5187
rfoot -1.99196 -26.712
rtoes 6.7836
lfemur -23.9367 -0.732997 -8.62259
ltibia 40.017
lfoot -13.8735 25.4917
ltoes 26.0228
2697
root 5.48211 16.2778 -14.5417 -348.785 -13.7443 -3.16492
lowerback -6.799 -2.56712 0.325611
upperback -6.52786 -3.43913 2.11153
thorax -2.83111 -1.70813 1.85082
lowerneck 2.91738 -6.08709 -8.78879
upperneck 4.62032 -8.95178 14.0136
head 1.90418 -4.49353 5.53406
rclavicle -6.35365e-014 1.76918e-014
rhumerus -36.9183 6.99676 -84.5498
rradius 24.0577
rwrist -7.26144
rhand -18.538 27.8035
rfingers 7.12502
rthumb 7.75109 -2.03441
lclavicle -6.35365e-014 1.76918e-014
lhumerus -38.5885 2.55014 82.7497
lradius 28.5461
lwrist -27.5146
lhand 3.90045 43.0901
lfingers 7.12502
lthumb 29.3206 70.7983
rfemur -18.3404 26.6867 27.6671
rtibia 17.4549
rfoot -1.99068 -26.4423
rtoes 6.43327
lfemur -24.6081 -0.916495 -8.6982
ltibia 41.1171
lfoot -13.3649 25.3781
ltoes 30.6106
2698
root 5.46438 16.2808 -14.5523 -348.813 -13.8241 -3.20885
lowerback -6.70672 -2.52049 0.407146
upperback -6.49983 -3.38039 2.04229
thorax -2.86322 -1.68294 1.74028
lowerneck 2.80093 -6.10569 -8.65426
upperneck 4.66001 -8.973 14.0248
head 1.9321 -4.49671 5.50988
rclavicle -1.60891e-015 -2.98177e-016
rhumerus -36.9611 6.53168 -84.3153
rradius 23.8647
rwrist -7.11385
rhand -18.8096 26.9657
rfingers 7.12502
rthumb 7.48892 -2.88172
lclavicle -1.60891e-015 -2.98177e-016
lhumerus -38.6686 2.59811 82.6037
lradius 28.6853
lwrist -27.3782
lhand 3.56349 43.004
lfingers 7.12502
lthumb 28.9989 70.768
rfemur -18.2261 26.6746 27.8173
rtibia 17.2902
rfoot -1.76027 -26.3109
rtoes 6.04358
lfemur -25.2567 -1.11511 -8.55291
ltibia 42.1994
lfoot -13.1709 25.1577
ltoes 33.7353
2699
root 5.4503 16.2688 -14.5607 -348.819 -13.8382 -3.55015
lowerback -6.60111 -2.47602 0.81124
upperback -6.42751 -3.33617 2.05639
thorax -2.86945 -1.67541 1.53452
lowerneck 2.5356 -6.11432 -8.50424
upperneck 4.84266 -8.98304 13.9585
head 2.02116 -4.4862 5.45244
rclavicle -3.99371e-014 -3.52843e-015
rhumerus -36.914 6.18924 -84.1902
rradius 23.4735
rwrist -7.24989
rhand -19.3637 26.7825
rfingers 7.12502
rthumb 6.95407 -3.08327
lclavicle -3.99371e-014 -3.52843e-015
lhumerus -38.728 2.5214 82.5332
lradius 28.8345
lwrist -27.1584
lhand 3.33711 42.8305
lfingers 7.12502
lthumb 28.7826 70.6314
rfemur -17.9725 26.6915 28.3051
rtibia 17.019
rfoot -1.44232 -26.1567
rtoes 5.43327
lfemur -25.8762 -1.38634 -8.07308
ltibia 43.271
lfoot -12.9685 24.9422
ltoes 35.3578
